HIERARCHY
ROOT Hips
{
  OFFSET 0 0 0
  CHANNELS 6 Xposition Yposition Zposition Zrotation Yrotation Xrotation
  JOINT LeftThigh
  {
    OFFSET 8.409438 0 -5.917753
    CHANNELS 3 Zrotation Yrotation Xrotation
    JOINT LeftLeg
    {
      OFFSET 0 0 -42.358652
      CHANNELS 3 Zrotation Yrotation Xrotation
      JOINT LeftFoot
      {
        OFFSET 0 0 -39.357303
        CHANNELS 3 Zrotation Yrotation Xrotation
      }
    }
  }
  JOINT RightThigh
  {
    OFFSET -8.409438 0 -5.917753
    CHANNELS 3 Zrotation Yrotation Xrotation
    JOINT RightLeg
    {
      OFFSET 0 0 -42.358652
      CHANNELS 3 Zrotation Yrotation Xrotation
      JOINT RightFoot
      {
        OFFSET 0 0 -39.357303
        CHANNELS 3 Zrotation Yrotation Xrotation
      }
    }
  }
  JOINT SpineLow
  {
    OFFSET 0 0 4.719101
    CHANNELS 3 Zrotation Yrotation Xrotation
    JOINT SpineMid
    {
      OFFSET 0 0 12.899191
      CHANNELS 3 Zrotation Yrotation Xrotation
      JOINT Chest
      {
        OFFSET 0 0 12.899191
        CHANNELS 3 Zrotation Yrotation Xrotation
        JOINT LeftShoulder
        {
          OFFSET 7.550562 1.41573 9.438202
          CHANNELS 3 Zrotation Yrotation Xrotation
          JOINT LeftArm
          {
            OFFSET 9.155056 0 4.247191
            CHANNELS 3 Zrotation Yrotation Xrotation
            JOINT LeftForearm
            {
              OFFSET 0 0 25.771955
              CHANNELS 3 Zrotation Yrotation Xrotation
              JOINT LeftHand
              {
                OFFSET 0 0 25.197169
                CHANNELS 3 Zrotation Yrotation Xrotation
              }
            }
          }
        }
        JOINT RightShoulder
        {
          OFFSET -7.550562 1.41573 9.438202
          CHANNELS 3 Zrotation Yrotation Xrotation
          JOINT RightArm
          {
            OFFSET -9.155056 0 4.247191
            CHANNELS 3 Zrotation Yrotation Xrotation
            JOINT RightForearm
            {
              OFFSET 0 0 -25.771955
              CHANNELS 3 Zrotation Yrotation Xrotation
              JOINT RightHand
              {
                OFFSET 0 0 -25.197169
                CHANNELS 3 Zrotation Yrotation Xrotation
              }
            }
          }
        }
        JOINT Neck
        {
          OFFSET 0 0 15.101124
          CHANNELS 3 Zrotation Yrotation Xrotation
          JOINT Head
          {
            OFFSET 0 0 11.325843
            CHANNELS 3 Zrotation Yrotation Xrotation
            End Site
            {
              OFFSET 0 0 14.157303
            }
          }
        }
      }
    }
  }
}
MOTION
Frames: 16
Frame Time: 0.0
0.0  93.25843  0.0  -2.09598  -33.315625  -90.160155  18.570546  -12.537924  0.22156  5.728877  -0.361705  12.807533  8.719714  1.650321  2.700078  2.942869  -2.062608  -11.565817  -6.68553  10.457359  8.282104  3.972233  0.826385  0.413998  2.704721  -0.980847  0.575158  7.373154  -2.741323  1.460997  7.373154  -2.741323  1.460997  -19.54014  18.842196  -8.913107  139.127852  40.948834  -155.715062  35.33101  -2.749197  37.949408  104.269611  25.804727  13.154842  6.182977  -7.697603  21.890331  114.678709  35.883665  43.83771  -14.116157  -14.434403  -105.155133  98.953457  15.86631  46.137822  -1.04732  7.926051  11.137281  -0.929889  5.927833  8.353256  
0.0  93.25843  0.0  -2.056585  -34.197319  -90.205222  17.780147  -12.776003  0.38334  6.576238  0.070688  13.291434  8.720105  1.601319  2.573142  2.878527  -2.408226  -11.841509  -5.465303  10.957108  9.048862  3.49971  0.719487  0.382948  2.734426  -0.992491  0.574521  7.454231  -2.773651  1.456706  7.454231  -2.773651  1.456706  -18.724308  19.37479  -8.718271  142.015508  40.360658  -155.517613  35.511287  -4.437948  39.656708  103.80606  25.495336  12.995166  6.090078  -7.651633  22.122089  115.007127  36.026357  43.907172  -14.103766  -14.494706  -104.789629  98.784306  15.947631  45.712366  -0.492745  8.075232  11.374106  -0.520366  6.049747  8.522937  
0.0  93.25843  0.0  -1.983224  -34.819278  -90.16711  16.494861  -12.783111  0.178194  7.644004  0.217064  13.981841  8.976355  1.579756  2.67206  2.643948  -2.674963  -12.079815  -4.779418  11.31299  9.574344  3.399218  0.755513  0.375226  2.785177  -0.986995  0.551832  7.594067  -2.757109  1.393207  7.594068  -2.757109  1.393207  -18.711407  19.557814  -8.647199  143.404768  39.824926  -155.099615  33.793106  -5.86065  40.151661  103.092377  25.210383  12.820865  6.054846  -7.735644  22.523041  115.078388  36.258212  44.008013  -14.229702  -14.50437  -104.383591  98.614079  15.960584  45.403323  0.015314  8.235513  11.66352  -0.146771  6.179578  8.73229  
0.0  93.25843  0.0  -1.932262  -35.088576  -90.095081  14.973648  -12.70596  -0.28892  8.848279  0.203172  14.89279  9.190685  1.523836  2.807669  1.945185  -2.867306  -12.168287  -3.618891  11.562206  10.055354  3.45831  1.041726  0.262163  2.814697  -0.97922  0.52771  7.67592  -2.73368  1.326984  7.675921  -2.73368  1.326984  -18.737474  19.783256  -8.652526  144.682888  39.339221  -154.899519  31.582855  -7.433877  41.030551  102.154741  24.873829  12.622355  5.955119  -7.901055  22.829017  114.818752  36.58763  44.11196  -13.962817  -14.593852  -104.188108  98.52198  15.94429  45.352683  0.261063  8.26929  11.855559  0.034024  6.209774  8.872601  
0.0  93.25843  0.0  -1.853046  -34.79954  -90.031484  13.349353  -12.605438  -0.949535  9.741232  0.120062  15.814314  9.343226  1.452573  2.940209  0.673348  -2.855142  -12.116718  -2.667915  11.638748  10.241953  3.405316  1.069865  0.250318  2.80828  -0.952295  0.508502  7.659529  -2.657861  1.277894  7.65953  -2.657861  1.277894  -18.991981  19.890791  -8.891254  146.12172  38.696949  -154.799693  29.051955  -9.092869  42.306517  101.002844  24.509989  12.427015  5.770436  -8.221323  23.017427  114.525866  36.672011  44.26138  -13.898824  -14.651691  -104.057824  98.451728  15.920095  45.512393  0.521815  8.298828  12.080961  0.225666  6.237289  9.037675  
0.0  93.25843  0.0  -1.744377  -33.620125  -90.009772  11.643739  -12.513499  -1.656387  10.094571  0.03363  16.599072  9.537916  1.378881  3.140924  -1.27087  -2.655565  -11.854698  -2.405305  11.320783  10.05316  2.554213  1.126356  -0.01389  2.716008  -0.924618  0.491723  7.408233  -2.578769  1.238917  7.408233  -2.578769  1.238918  -19.338748  20.21686  -9.163293  147.59202  38.154098  -154.923034  26.189862  -10.802092  44.157165  99.667896  24.114939  12.273506  5.530968  -8.584235  23.186711  113.798081  36.811011  44.353523  -14.224854  -14.510869  -103.822986  97.945411  16.098607  45.195713  0.482259  8.256958  12.249459  0.194597  6.205304  9.164562  
0.0  93.25843  0.0  -1.637111  -31.665759  -89.920288  10.179314  -12.456049  -2.41617  9.875068  -0.012017  17.140075  9.509679  1.283197  3.237321  -3.43254  -2.197183  -11.495821  -1.494449  10.859751  9.83867  2.478298  1.108138  0.032321  2.579395  -0.903093  0.446319  7.036688  -2.512778  1.122591  7.036687  -2.512777  1.122591  -19.749558  20.73734  -9.335547  149.21265  37.268084  -154.987367  23.306038  -12.623827  46.411607  98.208074  23.778843  12.154919  5.19576  -8.992849  23.483894  112.616532  36.953256  44.381577  -14.059111  -14.251679  -103.962642  97.713657  15.93553  45.215858  0.279799  8.23674  12.532069  0.039523  6.186346  9.378987  
0.0  93.25843  0.0  -1.591476  -29.120102  -89.73233  9.17682  -12.560731  -3.207873  9.137536  0.041848  17.420112  9.320652  1.185302  3.320672  -5.14895  -1.58319  -11.13216  -1.233702  10.19933  9.549659  2.179383  1.082139  0.098514  2.440229  -0.893743  0.382021  6.658679  -2.478566  0.953258  6.658679  -2.478566  0.953258  -20.131274  21.243529  -9.408395  151.052238  36.306147  -154.916412  20.23794  -14.066991  49.441568  96.701851  23.747679  12.027528  4.707958  -9.421428  23.853875  110.957689  37.15131  44.37004  -14.11413  -13.724836  -104.142461  97.405734  15.539864  44.936694  -0.412942  8.079334  12.792495  -0.479601  6.054004  9.583881  
0.0  93.25843  0.0  -1.669628  -26.163993  -89.459158  8.649292  -12.842393  -3.995835  7.986376  0.147059  17.466714  8.909221  1.093724  3.327  -6.169728  -1.1262  -10.567945  -1.963173  9.735493  8.980452  1.857361  1.077868  0.163807  2.329581  -0.911992  0.308415  6.35876  -2.519836  0.754634  6.35876  -2.519836  0.754634  -20.266144  21.772239  -9.128783  153.407276  35.552765  -154.348378  17.166067  -14.611527  53.310444  95.219088  23.921061  11.896117  3.992167  -9.805469  24.304509  108.907131  37.389746  44.338449  -14.351369  -12.832955  -104.378436  97.148974  14.772512  44.535824  -1.274874  8.055892  13.164227  -1.129787  6.017837  9.873759  
0.0  93.25843  0.0  -1.861808  -22.782872  -89.084806  8.366429  -13.266643  -4.818583  6.52787  0.302601  17.291348  8.378069  0.969369  3.317138  -7.143917  -0.760725  -9.804061  -3.151771  9.327237  8.119225  1.725556  1.079211  0.285985  2.234404  -0.952001  0.231631  6.10128  -2.621017  0.544841  6.10128  -2.621017  0.544841  -20.142119  22.235582  -8.624806  156.530907  34.973883  -153.460068  14.304164  -14.051092  58.107729  93.710411  24.155541  11.91187  3.12016  -10.167491  24.656063  106.417825  37.603922  44.236864  -14.910146  -11.531541  -104.584324  96.98081  13.56326  43.925674  -2.394449  7.97647  13.536233  -1.971804  5.932963  10.167281  
0.0  93.25843  0.0  -2.115267  -18.992166  -88.66413  8.135293  -13.775059  -5.666671  4.826983  0.508155  16.905508  7.774939  0.818025  3.276273  -8.242636  -0.348662  -9.065577  -4.779464  8.780989  7.158466  1.425237  1.058584  0.393359  2.126097  -1.03015  0.112034  5.809941  -2.823152  0.215525  5.809941  -2.823152  0.215525  -19.523489  22.888675  -7.629598  160.084209  34.323965  -152.46125  11.763593  -12.542031  63.479121  92.059621  24.405826  12.160866  2.092621  -10.350008  25.137204  103.536012  37.693083  44.036535  -15.865761  -9.741367  -104.767569  96.980015  11.815146  43.068233  -3.653656  7.953856  14.038229  -2.921443  5.885538  10.559902  
0.0  93.25843  0.0  -2.35929  -14.857408  -88.172916  7.884692  -14.24294  -6.577598  3.060452  0.715029  16.414821  7.197102  0.651802  3.256434  -9.365005  0.105323  -8.457027  -6.476233  8.111242  6.315298  0.992965  1.044151  0.474125  2.005105  -1.132418  -0.02061  5.485408  -3.091194  -0.150289  5.485408  -3.091194  -0.150289  -18.376992  23.59294  -6.51954  163.245122  33.428424  -151.809069  9.464574  -10.201185  69.145885  90.264278  24.979275  12.615336  0.927824  -10.339123  25.498768  100.407043  37.592495  43.901174  -17.355499  -7.411752  -104.974425  97.13672  9.475333  41.873789  -5.010497  7.925559  14.510426  -3.943776  5.829762  10.931532  
0.0  93.25843  0.0  -2.611407  -10.47712  -87.606584  7.410763  -14.689388  -7.600399  1.179018  0.876911  15.779315  6.651832  0.51877  3.223952  -10.434686  0.543492  -7.872604  -8.6646  7.375065  5.361082  0.677864  1.065451  0.554388  1.896736  -1.264962  -0.160247  5.197235  -3.442605  -0.537396  5.197235  -3.442605  -0.537396  -16.794466  24.409482  -5.4183  165.276896  32.604758  -151.931514  7.169073  -7.172818  74.80724  88.53903  26.020636  13.299911  -0.318359  -10.033592  26.003701  97.030247  37.60641  43.88415  -19.525229  -4.585537  -105.255794  97.304126  6.654216  40.141258  -6.665752  7.884661  14.834957  -5.187508  5.756783  11.196548  
0.0  93.25843  0.0  -2.780522  -5.864413  -87.110354  6.466789  -14.958122  -8.589423  -0.627558  0.9442  15.169904  6.345127  0.453749  3.268229  -11.732608  0.980736  -7.304198  -11.237305  6.659593  4.379584  0.659793  1.11972  0.668721  1.849683  -1.370421  -0.302392  5.077931  -3.720173  -0.931772  5.077931  -3.720173  -0.931772  -15.153696  24.962204  -4.214786  166.215295  31.780398  -152.857173  5.091379  -4.034046  80.157638  87.119831  27.139643  14.409972  -2.061595  -9.525766  26.344039  93.340512  37.341956  43.687519  -22.274757  -1.319295  -105.719174  97.339613  3.555061  37.857887  -8.599234  7.655039  15.129957  -6.635135  5.534011  11.441377  
0.0  93.25843  0.0  -2.913004  -1.110135  -86.719087  5.102789  -15.103737  -9.36453  -2.34412  0.840056  14.514283  6.146842  0.410964  3.234006  -12.87104  1.444953  -6.633312  -13.737166  5.92714  3.650421  0.275478  1.165398  0.670984  1.906334  -1.394727  -0.355273  5.236426  -3.781497  -1.081488  5.236426  -3.781497  -1.081488  -14.103981  24.82588  -3.380949  166.164084  30.972981  -154.44112  3.353439  -1.571733  85.291566  85.752604  28.163566  15.60685  -4.131327  -9.192318  26.081151  89.051166  36.891773  43.12951  -25.498924  2.367322  -106.37579  97.084423  0.286979  35.216711  -11.180413  6.978788  15.00026  -8.55303  4.965463  11.368878  
0.0  93.25843  0.0  -3.027235  3.745507  -86.505933  3.169031  -15.213839  -9.920082  -3.096669  0.883168  14.392446  6.202491  0.482385  3.358776  -14.197599  1.813621  -5.939492  -16.219782  5.348148  3.11678  -0.195891  1.174681  0.663318  1.994181  -1.417044  -0.391449  5.479373  -3.837894  -1.18728  5.479373  -3.837893  -1.18728  -12.997925  24.713921  -2.203807  165.612629  30.389145  -156.404554  2.036733  0.067573  90.480623  83.986596  28.835423  16.268413  -5.608416  -8.652675  26.375126  83.206421  36.769687  41.524195  -28.913016  6.349388  -106.904522  96.725155  -2.941958  32.36667  -13.924177  6.231984  14.86259  -10.592263  4.341264  11.285275  
